<?xml version="1.0" encoding="UTF-8"?>
<svg version="1.1" xmlns="http://www.w3.org/2000/svg" width="154" height="148">
<path d="M0 0 C50.82 0 101.64 0 154 0 C154 48.84 154 97.68 154 148 C103.18 148 52.36 148 0 148 C0 99.16 0 50.32 0 0 Z " fill="#FDFDFD" transform="translate(0,0)"/>
<path d="M0 0 C0.79711899 -0.00099701 1.59423798 -0.00199402 2.41551208 -0.00302124 C4.09050537 0.00163377 5.76551612 0.02093513 7.44018555 0.05419922 C9.99330513 0.10151082 12.54225445 0.09529337 15.09570312 0.08203125 C16.73049345 0.0931838 18.36526634 0.10740299 20 0.125 C21.13460411 0.12226578 21.13460411 0.12226578 22.29212952 0.11947632 C27.41591873 0.25557388 30.42362294 1.28430835 34.43359375 4.7265625 C38.7652807 9.67106213 39.02572023 13.68232414 38.96484375 19.95703125 C38.96867065 20.82926834 38.97249756 21.70150543 38.97644043 22.60017395 C38.97915165 24.43487713 38.97184598 26.26961949 38.95507812 28.10424805 C38.93357839 30.91607157 38.95494535 33.72536274 38.98046875 36.53710938 C38.97782685 38.32292231 38.97270473 40.10873366 38.96484375 41.89453125 C38.97294067 42.73517624 38.9810376 43.57582123 38.98937988 44.44194031 C38.8961936 50.21580537 38.8961936 50.21580537 36.56445312 52.7902832 C33.75961568 54.02270204 32.30028199 53.70727164 29.43359375 52.7265625 C27.43359375 50.7265625 27.43359375 50.7265625 27.20654297 47.47021484 C27.20685993 46.08426955 27.21817616 44.69829949 27.23828125 43.3125 C27.24111115 42.58286041 27.24394104 41.85322083 27.24685669 41.10147095 C27.25806373 38.76800222 27.28316865 36.43491547 27.30859375 34.1015625 C27.3186229 32.52083887 27.32774886 30.94010923 27.3359375 29.359375 C27.3580047 25.48162336 27.3925376 21.60415772 27.43359375 17.7265625 C26.77359375 17.7265625 26.11359375 17.7265625 25.43359375 17.7265625 C25.4424762 18.85773499 25.45135864 19.98890747 25.46051025 21.15435791 C25.54154938 31.80754463 25.60153675 42.46066892 25.64084244 53.11409378 C25.66172918 58.59132978 25.69006694 64.06831722 25.73535156 69.54541016 C25.77877012 74.8297953 25.80272267 80.11394117 25.81310272 85.39849091 C25.82050124 87.41597003 25.83494862 89.43343586 25.85651398 91.45081329 C25.88549476 94.27381326 25.88955197 97.09582085 25.88769531 99.91894531 C25.90926697 101.17374947 25.90926697 101.17374947 25.93127441 102.4539032 C25.9055222 106.06565076 25.76159125 108.26896247 23.62786865 111.24578857 C20.42007881 113.41051805 18.20564118 113.27522394 14.43359375 112.7265625 C11.59477502 109.84050216 11.06221708 107.75794508 11.09301758 103.77441406 C11.09324417 102.79369934 11.09347076 101.81298462 11.09370422 100.80255127 C11.10918808 99.75138123 11.12467194 98.70021118 11.140625 97.6171875 C11.14486984 96.53524109 11.14911469 95.45329468 11.15348816 94.33856201 C11.1702753 90.8843086 11.20792848 87.43063946 11.24609375 83.9765625 C11.2611405 81.63412301 11.27482892 79.29167437 11.28710938 76.94921875 C11.32017894 71.20813412 11.37037909 65.46739005 11.43359375 59.7265625 C10.77359375 59.7265625 10.11359375 59.7265625 9.43359375 59.7265625 C9.4424762 60.33155579 9.45135864 60.93654907 9.46051025 61.55987549 C9.54896968 67.85378578 9.60932217 74.14751963 9.65332031 80.44189453 C9.67344189 82.79125134 9.70074226 85.14055804 9.73535156 87.48974609 C9.78384415 90.86568565 9.80655732 94.24096336 9.82421875 97.6171875 C9.84486389 98.66835754 9.86550903 99.71952759 9.88677979 100.80255127 C9.88901353 108.05342985 9.88901353 108.05342985 7.63183594 111.38964844 C4.39640945 113.35735118 2.13449397 113.26487526 -1.56640625 112.7265625 C-4.42902063 110.22361581 -4.576671 108.61457974 -4.9271698 104.79083252 C-4.93585404 103.1668794 -4.92791932 101.54278669 -4.90698242 99.91894531 C-4.90763954 98.58670677 -4.90763954 98.58670677 -4.90830994 97.22755432 C-4.90622152 94.29470769 -4.88288785 91.36243416 -4.859375 88.4296875 C-4.85377924 86.39516512 -4.84950905 84.3606387 -4.84651184 82.32611084 C-4.83506155 76.97321396 -4.80559263 71.62056157 -4.7723999 66.26776123 C-4.74170309 60.80484321 -4.72800733 55.34188567 -4.71289062 49.87890625 C-4.68072323 39.16135096 -4.62952451 28.44397707 -4.56640625 17.7265625 C-5.22640625 17.7265625 -5.88640625 17.7265625 -6.56640625 17.7265625 C-6.54284058 19.20249878 -6.54284058 19.20249878 -6.51879883 20.70825195 C-6.46449647 24.35904758 -6.4300554 28.00980751 -6.40161133 31.66088867 C-6.38652531 33.24102786 -6.36605375 34.82112519 -6.34008789 36.40112305 C-6.30369499 38.67246835 -6.28667863 40.94326009 -6.2734375 43.21484375 C-6.25795364 43.92119461 -6.24246979 44.62754547 -6.22651672 45.3553009 C-6.22551534 48.27407963 -6.22515443 50.23899874 -7.9284668 52.67260742 C-10.28748196 54.19054876 -11.82050749 54.13844731 -14.56640625 53.7265625 C-16.1993866 52.44320679 -16.1993866 52.44320679 -17.56640625 50.7265625 C-17.8528127 47.77159914 -17.9627868 45.03201625 -17.9296875 42.078125 C-17.930186 41.22858246 -17.93068451 40.37903992 -17.93119812 39.50375366 C-17.92885792 37.70658022 -17.91913251 35.90940349 -17.90258789 34.11230469 C-17.87905446 31.36884028 -17.88201997 28.62635181 -17.88867188 25.8828125 C-17.88309287 24.1354109 -17.87598159 22.38801338 -17.8671875 20.640625 C-17.86809891 19.8227652 -17.86901031 19.0049054 -17.86994934 18.16226196 C-17.79263714 11.91087823 -17.08723664 7.95861956 -12.47680664 3.45947266 C-8.41143911 0.18512322 -5.09438338 -0.12438844 0 0 Z " fill="#020202" transform="translate(65.56640625,30.2734375)"/>
<path d="M0 0 C4.16507424 1.7585869 6.20882468 3.85201505 8 8 C8.55438343 12.3558698 8.30805175 14.43700886 6.1875 18.3125 C3.81558301 21.22656945 2.2541237 22.81557004 -1.5234375 23.37109375 C-9.25520459 23.5511486 -9.25520459 23.5511486 -13.125 20.6875 C-16.10464979 16.41666864 -16.35382892 13.13051934 -16 8 C-12.8986288 0.81787723 -7.35687568 -1.08935482 0 0 Z " fill="#030303" transform="translate(80,5)"/>
</svg>
